<?xml version="1.0" encoding="UTF-8" standalone="no"?>
<svg
   width="22.32"
   height="24.18"
   viewBox="-2015 -2000 3719.9999 4030"
   version="1.1"
   id="svg1"
   sodipodi:docname="Maple_Leaf.svg"
   inkscape:version="1.4.3 (0d15f75, 2025-12-25)"
   xmlns:inkscape="http://www.inkscape.org/namespaces/inkscape"
   xmlns:sodipodi="http://sodipodi.sourceforge.net/DTD/sodipodi-0.dtd"
   xmlns="http://www.w3.org/2000/svg"
   xmlns:svg="http://www.w3.org/2000/svg"
   xmlns:rdf="http://www.w3.org/1999/02/22-rdf-syntax-ns#"
   xmlns:cc="http://creativecommons.org/ns#"
   xmlns:dc="http://purl.org/dc/elements/1.1/">
  <defs
     id="defs1" />
  <sodipodi:namedview
     id="namedview1"
     pagecolor="#ffffff"
     bordercolor="#000000"
     borderopacity="0.25"
     inkscape:showpageshadow="2"
     inkscape:pageopacity="0.0"
     inkscape:pagecheckerboard="0"
     inkscape:deskcolor="#d1d1d1"
     showborder="true"
     inkscape:zoom="1.3446154"
     inkscape:cx="300.08581"
     inkscape:cy="326.11556"
     inkscape:window-width="1940"
     inkscape:window-height="1186"
     inkscape:window-x="14"
     inkscape:window-y="31"
     inkscape:window-maximized="0"
     inkscape:current-layer="svg1" />
  <title
     id="title1">maple leaf from the flag of Canada</title>
  <path
     fill="#ff0000"
     d="M -245,2030 -200,1167 A 95,95 0 0 0 -311,1069 L -1170,1220 -1054,900 A 65,65 0 0 0 -1074,827 L -2015,65 -1803,-34 A 65,65 0 0 0 -1769,-113 L -1955,-685 -1413,-570 A 65,65 0 0 0 -1340,-608 L -1235,-855 -812,-401 A 65,65 0 0 0 -701,-458 L -905,-1510 -578,-1321 A 65,65 0 0 0 -487,-1348 L -155,-2000 177,-1348 A 65,65 0 0 0 268,-1321 L 595,-1510 391,-458 A 65,65 0 0 0 502,-401 L 925,-855 1030,-608 A 65,65 0 0 0 1103,-570 L 1645,-685 1459,-113 A 65,65 0 0 0 1493,-34 L 1705,65 764,827 A 65,65 0 0 0 744,900 L 860,1220 1,1069 A 95,95 0 0 0 -110,1167 L -65,2030 Z"
     id="path1" />
  <metadata
     id="metadata1">
    <rdf:RDF>
      <cc:Work
         rdf:about="">
        <dc:title>maple leaf from the flag of Canada</dc:title>
      </cc:Work>
    </rdf:RDF>
  </metadata>
</svg>
